<svg viewBox="0 0 296.17 80.63" xmlns="http://www.w3.org/2000/svg" data-name="Layer 2" id="Layer_2">
  <g data-name="Layer 2" id="Layer_2-2">
    <g>
      <path d="m173.16,26.63c.07,0,.13-.06.13-.13v-6.97c0-1.37-.16-2.71-.4-4.01-1.91-9.23-10.36-16.06-20.29-15.49-10.49.61-18.37,9.93-18.37,20.43v39.86c0,10.01,7.19,18.97,17.12,20.16,11.87,1.42,21.95-7.83,21.95-19.42v-24.51h-17.67c-.07,0-.13.06-.13.13v10.88c0,.07.06.13.13.13h0c3.23,0,5.85,2.62,5.85,5.85v6.83c0,4.1-2.94,7.88-7.03,8.23-4.57.4-8.4-3.2-8.4-7.69V20.53c0-3.98,2.77-7.68,6.72-8.18,2.98-.37,5.7.97,7.24,3.17.93,1.24,1.46,2.8,1.46,4.48v6.5c0,.07.06.13.13.13h11.57Z"></path>
      <path d="m61.17.92c-9.93,1.2-17.11,10.16-17.11,20.16v58.79h11.86v-18.71h15.43v18.71h11.82V20.3c0-11.6-10.09-20.83-21.99-19.38Zm-5.25,49.13v-28.89c0-3.62,2.3-7.05,5.83-7.88,5.08-1.21,9.6,2.61,9.6,7.49v29.28h-15.43Z"></path>
      <path d="m128.01,1.17v78.29h-12.44l-10.08-38.44c-.74-2.83-4.89-2.29-4.89.63v37.81h-11.22V1.17h12.77l9.83,38.46c.74,2.82,4.89,2.28,4.89-.64V1.17h11.15Z"></path>
      <path d="m0,1.12h12.32v48.66h13.22V1.12h12.32v78.39h-12.32v-18.54h-13.22v18.54H0V1.12Z"></path>
      <path d="m199.03,0C188.24,0,179.49,8.75,179.49,19.55v41.54c0,10.8,8.75,19.55,19.55,19.55s19.55-8.75,19.55-19.55V19.55C218.58,8.75,209.83,0,199.03,0Zm7.71,60.92c0,4.26-3.45,7.72-7.71,7.72s-7.71-3.45-7.71-7.72V20.01c0-4.26,3.45-7.72,7.71-7.72s7.71,3.45,7.71,7.72v40.91Z"></path>
      <path d="m199.03,18.26c-2.7,0-4.88,2.19-4.88,4.88s2.19,4.88,4.88,4.88,4.88-2.19,4.88-4.88-2.19-4.88-4.88-4.88Z"></path>
      <path d="m224.78,1.12h32.59v11.2h-20.27v37.25h11.32v11.2h0c-6.25,0-11.32,5.07-11.32,11.32v7.42h-12.32V1.12Z"></path>
      <path d="m263.58,1.12h32.59v11.2h-20.27v37.25h11.32v11.2h0c-6.25,0-11.32,5.07-11.32,11.32v7.42h-12.32V1.12Z"></path>
    </g>
  </g>
</svg>