<svg viewBox="0 0 664.6 245.16" xmlns="http://www.w3.org/2000/svg" data-name="Layer 2" id="Layer_2">
  <defs>
    <style>
      .cls-1 {
        fill: #f36c21;
      }
    </style>
  </defs>
  <g data-name="Layer 2" id="Layer_2-2">
    <g>
      <path d="m158.48,106.26c-4.05-2.49-10.2-3.52-18.42-3.09l-8.52.45-10.21.54-22.66,65.47,15.48-.81c8.26-.43,15.15-1.21,20.69-2.35,3.34-.68,6.19-1.5,8.55-2.44,6.25-2.48,11.94-6.97,17-13.47,6.2-8.05,9.09-16.35,8.64-24.92-.47-8.92-4-15.38-10.55-19.37Zm7.21,15.25c.36,2.23.58,3.88.64,4.96.33,6.26-1.59,12.58-5.75,18.97-.73,1.13-1.53,2.26-2.4,3.39-4.87,6.31-11.15,10.82-18.85,13.56-2.05.73-4.19,1.33-6.44,1.8-4.22.81-10.53,1.45-18.89,1.89l-3.35.18,17.31-49.98,8.93-.47,7.97-.42c5.46-.29,9.7.01,12.73.89.51.15,1.01.33,1.5.53,2.42.99,4.62,2.55,6.6,4.69Z" class="cls-1"></path>
      <path d="m47.89,184.09c-5.09.34-8.84.73-11.3,1.19-3.12.54-6.19,1.61-9.23,3.12-7.93,3.99-11.68,9.9-11.27,17.75.25,4.77,2.25,8.61,6.04,11.53,3.76,2.92,8.47,4.23,14.07,3.94,4.51-.24,9-1.33,13.48-3.28,1.22-.53,2.43-1.12,3.65-1.78,5.69-3.07,10.71-7.22,15.04-12.47,4.6-5.51,8.69-12.76,12.37-21.75l-28.48,1.49c-1.56.08-3.02.17-4.39.26Zm23.39,11.22c-4.44,7.13-9.76,12.78-15.92,16.88-2.44,1.61-4.91,2.94-7.41,3.97-3.87,1.6-7.83,2.51-11.88,2.72-5.01.26-9.2-.94-12.59-3.6-.18-4.81,1.62-8.78,5.37-11.96,2.71-2.43,5.99-4.16,9.75-5.12,2.06-.54,4.84-1,8.35-1.38,2.9-.31,6.29-.57,10.18-.77l14.17-.74Z" class="cls-1"></path>
      <path d="m175.81,48.83c-1.74-2.68-3.99-4.64-6.75-5.85-3.8-1.71-10.31-2.3-19.47-1.82l-6.39.33-12.96,37.42-4.59,13.26,5.27-.28,5.37-.28c7.15-.38,12.49-1,15.98-1.84,3.52-.88,7.11-2.49,10.77-4.83,5.03-3.24,8.97-7.3,11.8-12.16,2.83-4.86,4.09-9.85,3.82-14.96-.17-3.32-1.13-6.32-2.86-9Zm-4.63,24.71c-3.23,4.57-7.47,8.19-12.74,10.82-.35.18-.69.35-1.03.51-2.68,1.3-5.06,2.17-7.19,2.62-2.36.51-6.53.93-12.54,1.32l12.16-35.19,4.56-.24c.46-.02.92-.04,1.37-.06,10.09-.4,16.76.84,20.03,3.72.1.65.16,1.07.17,1.2.27,5.15-1.34,10.22-4.78,15.29Z" class="cls-1"></path>
      <path d="m647.88,112.8l-20.67,1.08,37.39-104.5-8.22.43,3.57-9.82-17.94.94-36.1,101.38c-2.23,5.8-3.25,10.05-3.11,12.74.01.21.03.42.04.62l-26.62,1.4,13.74-42.03-7.91.41,3.26-9.94-17.73.93-14.8,44.85c-4.02,3.4-6.85,5.56-8.46,6.47-1.58.95-3.35,1.46-5.22,1.56-.83.04-2.04-.03-3.68-.22.59-2.01,1.12-3.8,1.65-5.46l11.61-36.44-7.81.41,3.12-9.94c-15.55.81-31.1,1.63-46.65,2.44l5.32-14.9c2.99-8.4,6.4-14.16,10.19-17.24,3.82-3.08,9.59-4.8,17.36-5.21l5.88-.31,6.03-16.57-8.19.32,3.54-9.82-13.79.72c-6.12.32-11.1,1.07-14.89,2.24-3.82,1.2-7.39,3.09-10.79,5.69-3.49,2.78-6.34,5.91-8.51,9.49-2.2,3.58-4.59,8.87-7.21,15.9l-11.37,31.06-19.53,1.02-5.97,16.25,8.33-.44-3.64,9.93,11.23-.59-9.79,26.43-33.65,1.76,14.58-41.9-8.09.42,1.38-4.12c1.71.26,3.07.36,4.11.3,2.83-.15,5.44-1.36,7.81-3.67,2.63-2.63,3.85-5.85,3.65-9.62-.17-3.18-1.71-6.22-4.63-9.11-.48-3.89-1.89-6.97-4.29-9.17-2.37-2.2-5.4-3.22-9.03-3.03-3.42.18-6.33,1.58-8.65,4.16-2.32,2.58-3.41,5.65-3.23,9.14.17,3.18,1.68,6.22,4.53,9.12.33,2.34,1.03,4.52,2.15,6.58l-7.88.41-12.92,36.4c-2.52,7.07-3.79,11.95-3.79,14.62l-31.29,1.64,9.02-25.67,17.42-.91,5.74-16.21-8.09.42,3.43-9.95-9.19.48,5.9-16.94-8.09.42,3.43-9.85-17.94.94-9.44,26.8-14,.73-5.73,16.24,8.09-.42-3.43,9.92,6.08-.32-1.69,4.87c-3.47,9.95-5.15,16.91-5.07,20.88l-29.28,1.53,13.74-42.03-7.91.42,3.26-9.94-17.73.93-14.8,44.85c-4.01,3.4-6.85,5.56-8.46,6.47-1.58.95-3.35,1.46-5.22,1.56-.83.04-2.05-.03-3.69-.22.59-2.01,1.12-3.8,1.65-5.46l11.61-36.44-7.81.41,3.12-9.94-17.9.94-10.04,31.3c-2.57,7.9-3.75,13.68-3.56,17.34.06,1.23.25,2.45.55,3.64l-26.1,1.37,14.58-41.9-8.09.42,1.38-4.12c1.71.26,3.07.36,4.11.3,2.83-.15,5.44-1.36,7.81-3.67,2.63-2.63,3.85-5.85,3.66-9.62-.17-3.18-1.71-6.22-4.64-9.11-.48-3.89-1.89-6.97-4.29-9.17-2.37-2.2-5.4-3.22-9.03-3.03-3.42.18-6.33,1.58-8.65,4.16-2.33,2.58-3.41,5.65-3.23,9.14.17,3.18,1.68,6.22,4.53,9.12.33,2.34,1.03,4.52,2.15,6.58l-7.88.41-12.92,36.4c-.28.79-.55,1.55-.8,2.29-2.11,6.2-3.11,10.46-2.99,12.75.17,3.24,1.55,6.39,4.15,9.5.17.21.35.41.53.62.52,4.58,2.79,8.28,6.79,11.11,2.12,1.52,4.25,2.43,6.38,2.78,2.17.36,5.78.43,10.82.16l45.54-2.39c1.76.04,3.77,0,6.03-.11,3.98-.21,6.89-.71,8.69-1.46,1.83-.79,5.05-2.9,9.68-6.29,2.34,2.37,4.85,3.95,7.49,4.67,2.67.73,6.53.97,11.68.7l53.95-2.83v-.1s46.62-2.44,46.62-2.44c2.07.1,4.76.06,8.06-.11l19.7-1.03-22.35,60.36,8.29-.43-3.64,9.83,18.11-.95,45.18-122.48,30.16-1.58-1.66,5.18c-2.57,7.9-3.75,13.68-3.56,17.34.23,4.32,1.9,8.42,5.01,12.32,1.41,5.16,3.69,8.96,6.8,11.42,2.17,1.79,4.59,2.95,7.18,3.51,2.59.52,6.38.67,11.39.41,3.98-.21,6.89-.71,8.69-1.46,1.83-.79,5.05-2.9,9.68-6.3,2.34,2.37,4.85,3.95,7.49,4.67,2.67.73,6.53.97,11.68.7l65.52-3.43.67-.45,5.93-16.42-8.19.43,3.54-9.85Zm-230.44-46.94c-2-1.8-3.09-4.1-3.24-6.86-.14-2.73.71-5.06,2.58-7.07,1.84-1.97,4.08-3.02,6.78-3.2.05,0,.1,0,.16,0,2.77-.08,5.13.77,7.06,2.58,1.97,1.8,3.02,4.03,3.16,6.73.14,2.73-.7,5.1-2.5,7.1-1.82,2.02-4.1,3.11-6.85,3.27h-.05c-2.7.14-5.06-.7-7.1-2.54Zm-197.74,10.36c-2-1.8-3.09-4.1-3.24-6.87-.14-2.73.71-5.06,2.57-7.06,1.84-1.97,4.09-3.02,6.78-3.2.05,0,.1,0,.16,0,2.77-.08,5.13.77,7.06,2.58,1.97,1.8,3.02,4.03,3.16,6.73.14,2.73-.7,5.1-2.5,7.1-1.82,2.02-4.1,3.11-6.85,3.27h-.05c-2.7.14-5.06-.7-7.1-2.54Zm420.27,50.3l-.22.43-64.14,3.36c-5.29.28-9.26-.07-11.94-1-2.68-.93-4.86-2.76-6.49-5.45-1.04.71-2.14,1.53-3.3,2.39-2.37,1.75-4.04,2.98-5.11,3.63-2.69,1.63-6.31,2.58-10.91,2.82-4.18.22-7.37.14-9.54-.23-2.2-.34-4.22-1.13-6.01-2.32-4.42-2.96-6.79-7.3-7.09-13.04-.17-3.21.96-8.71,3.4-16.43l6.07-18.79-43.77,2.29-45.17,122.58-3.89.2-8.14.43,7.15-19.33,18.85-50.96c-6.66.35-13.88.72-21.46,1.1-38.75,1.98-87.14,4.38-119.42,6.07-5.29.28-9.26-.07-11.94-1-2.68-.93-4.86-2.76-6.49-5.45-1.04.71-2.14,1.53-3.3,2.39-2.37,1.75-4.04,2.98-5.11,3.63-4.61,2.79-11.42,3.09-16.76,2.92l-34.71,1.82-10.8.57c-4.91.26-8.27.26-10.05-.03-1.78-.29-3.63-1.09-5.5-2.42-3.52-2.38-5.39-5.61-5.6-9.65-.11-2.14,1.1-6.78,3.64-13.88l12.31-34.78,11.54-.6-13.06,37.73c-1.66,4.7-2.45,7.44-2.41,8.27.2,3.77,3.51,5.5,9.91,5.16l9.49-.5,19.85-1.04c-.81-1.88-1.28-3.99-1.41-6.34-.17-3.21.96-8.71,3.4-16.43l9.51-29.43,12.06-.63-10.34,32.73c-1.76,5.43-2.57,9.15-2.47,11.12.29,5.46,4.26,7.99,11.97,7.59,2.28-.12,4.4-.75,6.28-1.85,1.92-1.11,5.11-3.56,9.56-7.29l14.48-43.83,11.75-.62-12.68,39.06c-1.3,3.64-1.92,6.27-1.84,7.82.17,3.28,3.61,4.76,10.28,4.42l31.37-1.64c-.15-.72-.25-1.49-.29-2.31-.11-2.11.09-4.16.58-6.2.52-2,2.01-6.72,4.46-14.1l6.41-18.6-14.17.74,3.7-10.66,13.96-.73,9.48-26.8,11.96-.63-9.37,26.79,17.42-.91-3.81,10.66-17.42.91-10.26,29.06c-.87,2.54-1.28,4.64-1.2,6.27.11,2.07.95,3.51,2.54,4.27,1.61.77,4.28,1.06,7.98.86l32.89-1.72c-.17-.74-.28-1.5-.32-2.3-.11-2.14,1.1-6.78,3.64-13.88l12.31-34.78,11.54-.6-13.06,37.73c-1.66,4.7-2.45,7.44-2.41,8.27.2,3.77,3.51,5.5,9.91,5.16l9.49-.5,25.82-1.35,15.52-41.95-19.63,1.03,3.91-10.67,19.52-1.02,11.97-32.72c4.28-11.59,9.16-19.61,14.65-24.05,5.48-4.45,13.6-6.95,24.31-7.51l9.64-.51-4,10.88-3.94.21c-8.4.44-14.67,2.36-18.9,5.77-4.22,3.38-7.95,9.57-11.23,18.54l-10.28,28.75c18.36-.96,36.72-1.92,55.09-2.89l-10.34,32.73c-1.76,5.43-2.57,9.15-2.47,11.12.29,5.46,4.27,7.99,11.97,7.59,2.28-.12,4.4-.75,6.28-1.85,1.92-1.11,5.12-3.56,9.56-7.29l14.48-43.83,11.75-.62-12.68,39.06c-1.3,3.64-1.92,6.27-1.84,7.83.17,3.28,3.61,4.76,10.28,4.42l28.93-1.52c-.31-1.07-.5-2.21-.56-3.43-.12-2.21.86-6.08,2.97-11.52L643.99,3.57l11.96-.63-35.23,98.7c-1.8,4.74-2.63,7.97-2.54,9.66.12,2.28.89,3.8,2.35,4.48,1.46.72,4.28.95,8.46.73l14.9-.78-3.91,10.77Z" class="cls-1"></path>
      <path d="m194.23,87.54c.92-1.57,1.72-3.17,2.4-4.78,2.16-5.13,3.11-10.46,2.82-16.01-.29-5.5-1.78-10.66-4.47-15.48-.54-.97-1.13-1.92-1.76-2.87-2.59-7.7-6.98-13.53-13.22-17.47-3.55-2.24-7.23-3.64-11.03-4.13-3.07-.43-7.95-.52-14.62-.27-1.52.06-3.12.13-4.82.22l-17.26.9-20.2,1.06-6.5,17.49,8.33-.44-3.64,9.93,12.23-.64-39.56,112.65-33.11,1.73c-1.49.08-2.93.17-4.32.27-8.04.6-14.44,1.66-19.24,3.18-5.62,1.78-10.56,4.71-14.83,8.71-3.66,3.52-6.53,7.65-8.63,12.44-2.07,4.75-3.01,9.41-2.77,13.94.27,5.18,2.13,10.22,5.57,15.03,2.3,7.54,6.62,13.24,12.92,17.06,6.34,3.83,14.18,5.49,23.58,5,2.44-.13,4.87-.44,7.3-.92,4.22-.84,8.43-2.23,12.64-4.14,6.6-3.01,12.52-7.07,17.73-12.16,4.05-3.99,7.6-8.44,10.63-13.34,3-4.87,6.42-11.74,10.22-20.53l14.38-.75c10.3-.54,18.9-1.43,25.8-2.68,3.73-.67,6.96-1.45,9.7-2.34,4.31-1.41,8.32-3.2,12.04-5.37,7.52-4.39,13.82-10.35,18.9-17.88,6.53-9.7,9.54-19.63,9.01-29.82-.39-7.43-2.61-14.04-6.62-19.86-1.52-4.6-3.59-8.37-6.18-11.36,7.19-4.36,12.72-9.85,16.57-16.39Zm-18.48,1.8c-3.3,2.46-7.75,4.84-13.32,7.07,6.86,3.25,11.95,7.17,15.21,11.85,3.26,4.68,5.06,10.55,5.43,17.63.44,8.43-1.82,16.9-6.78,25.34-6.59,11.19-16.05,19.14-28.31,23.83-4,1.53-8.18,2.7-12.52,3.52-.78.15-1.56.28-2.35.41-5.23.79-12.85,1.47-22.9,2l-16.1.84c-3.92,9.15-7.36,16.19-10.36,21.16-3,4.97-6.5,9.42-10.56,13.34-6.96,6.83-14.58,11.56-22.86,14.17-4.18,1.32-8.53,2.1-13.05,2.34-9.92.52-17.85-1.39-23.76-5.76-6.74-5.02-10.34-11.45-10.75-19.36-.21-4.04.64-8.25,2.59-12.68,1.92-4.4,4.59-8.21,8.03-11.44,4-3.78,8.67-6.52,13.99-8.18,4.82-1.51,11.45-2.54,19.9-3.1.88-.06,1.78-.11,2.69-.16l35.01-1.83,43.55-124.15,1.4-3.99-1.61.08-18.61.98,4.33-11.91,13.67-.72,21.96-1.15c8.43-.44,14.25-.5,17.45-.19,3.2.28,6.37,1.23,9.51,2.83,4.45,2.26,8.06,5.68,10.83,10.21,2.77,4.53,4.31,9.55,4.6,15.08.32,6.01-.97,11.83-3.86,17.53-2.86,5.66-7.01,10.45-12.45,14.41Z" class="cls-1"></path>
    </g>
  </g>
</svg>