<svg viewBox="0 0 289.62 70.33" xmlns="http://www.w3.org/2000/svg" data-name="Layer 2" id="Layer_2">
  <defs>
    <style>
      .cls-1 {
        fill: #f36c21;
      }
    </style>
  </defs>
  <g data-name="Layer 2" id="Layer_2-2">
    <g>
      <g>
        <path d="m277.43,18.46V1.04h12.19v52.13h-11.87c-.13-.72-.28-1.48-.46-2.45-7.37,4.48-14.22,3.33-20.07-2.52-5.65-5.66-6.95-12.7-4.37-20.22,3.61-10.54,13.24-14.26,24.58-9.53Zm-6.84,22.53c3.52.02,6.39-2.8,6.4-6.3,0-3.53-2.8-6.38-6.3-6.41-3.52-.02-6.36,2.79-6.38,6.31-.01,3.56,2.75,6.37,6.28,6.39Z" class="cls-1"></path>
        <path d="m149.9,13.02v8.02h16.64v12.18c-4.69,0-9.34.12-13.98-.05-2.31-.09-2.89.72-2.84,2.92.14,5.65.05,11.3.05,17.13h-12.05V1.01h32.55v12.01h-20.36Z" class="cls-1"></path>
        <path d="m229.75,53.91c-10.75-.23-18.91-8.79-18.72-19.63.18-10.34,9.04-18.59,19.72-18.37,10.37.22,18.83,9.19,18.51,19.65-.32,10.33-9.08,18.57-19.51,18.34Zm6.69-18.87c.05-3.53-2.72-6.35-6.26-6.37-3.48-.02-6.22,2.58-6.32,6.01-.1,3.56,2.58,6.46,6.09,6.57,3.44.11,6.44-2.76,6.49-6.2Z" class="cls-1"></path>
        <path d="m170.4,34.79c-.01-10.37,8.47-18.84,18.91-18.88,10.7-.04,19.2,8.42,19.25,19.15.05,10.39-8.68,18.94-19.25,18.86-10.64-.08-18.9-8.43-18.91-19.13Zm19.16-6.12c-3.57-.04-6.42,2.72-6.42,6.22,0,3.47,2.9,6.38,6.35,6.36,3.32-.02,6.23-2.85,6.32-6.15.1-3.47-2.73-6.38-6.25-6.42Z" class="cls-1"></path>
      </g>
      <g>
        <path d="m0,52.85V.04C.28.03.55,0,.82,0c6.35,0,12.7-.02,19.06,0,7.69.03,14.68,6.09,15.8,13.69.55,3.72-.03,7.25-1.88,10.54-.28.5-.26.78.14,1.21,2.92,3.16,4.43,6.92,4.38,11.21-.1,8.54-6.4,14.82-13.67,15.95-1.15.18-2.32.28-3.48.28-6.69.03-13.37.01-20.06.01-.35,0-.71-.03-1.1-.05Zm12.51-20.21v7.81c3.34,0,6.62.13,9.89-.04,2.54-.14,4.11-2.99,3.13-5.33-.76-1.83-2.29-2.49-4.15-2.51-2.73-.02-5.46,0-8.19,0-.22,0-.43.04-.69.07Zm-.06-12.46c.32.02.53.05.75.05,2.09,0,4.17.01,6.26,0,2.01-.01,3.77-1.63,3.93-3.59.16-2.01-1.25-3.97-3.27-4.14-2.4-.2-4.83-.12-7.24-.13-.14,0-.4.35-.4.54-.03,2.39-.02,4.78-.02,7.27Z" class="cls-1"></path>
        <path d="m80.7,34.19c.21,9.87-7.88,19.23-19.34,19.22-11.44-.02-19.39-9.39-19.32-19.36.08-10.22,8.71-19.23,19.75-19.01,10.44.2,19.07,8.86,18.9,19.16Zm-19.34,6.28c3.52,0,6.35-2.78,6.35-6.26,0-3.46-2.77-6.21-6.27-6.23-3.51-.01-6.33,2.72-6.35,6.14-.02,3.5,2.78,6.33,6.27,6.34Z" class="cls-1"></path>
        <path d="m114.58,15.73h6.18v12.39h-6.1c-.03.32-.06.56-.06.8,0,3.18-.04,6.35.02,9.53.02.9.21,1.83.53,2.67.53,1.4,1.67,2.05,3.15,2,.8-.03,1.59-.17,2.44-.27.02.21.06.43.06.64,0,2.59.02,5.18-.02,7.77,0,.29-.21.72-.44.84-4.61,2.37-11.83,1.44-15.29-2.45-1.84-2.06-2.88-4.49-2.9-7.19-.09-10.98-.06-21.95-.04-32.93,0-.27.27-.73.48-.78,3.95-.87,7.92-1.68,11.97-2.53v9.5Z" class="cls-1"></path>
        <path d="m97.03,52.85c-.31.02-.59.05-.86.05-3.54,0-7.08-.02-10.62.02-.72,0-.96-.18-.95-.93.02-16.16.02-32.32,0-48.48,0-.71.23-.93.9-1.07,3.83-.77,7.65-1.6,11.52-2.42v52.83Z" class="cls-1"></path>
      </g>
      <path d="m61.46,58c3.49.02,6.19,2.72,6.18,6.19,0,3.47-2.78,6.15-6.34,6.14-3.44-.01-6.14-2.78-6.14-6.26,0-3.47,3.02-6.25,6.3-6.07Z" class="cls-1"></path>
    </g>
  </g>
</svg>