<svg viewBox="0 0 258.9 39.68" xmlns="http://www.w3.org/2000/svg" data-name="Layer 2" id="Layer_2">
  <defs>
    <style>
      .cls-1 {
        fill: #f36c21;
      }
    </style>
  </defs>
  <g data-name="Layer 2" id="Layer_2-2">
    <g>
      <path d="m183.8,6.06c.95-.78,1.85-1.59,2.82-2.29,3.33-2.43,7.04-3.36,11.16-2.92,3.11.34,6.01,1.17,8.58,2.97,3.6,2.52,5.51,6.07,6.15,10.35.18,1.22.23,2.46.23,3.69.02,5.42.02,10.84,0,16.26,0,.73-.06,1.48-.25,2.18-.45,1.65-1.76,2.59-3.48,2.62-.95.01-1.9.01-2.85,0-2.63-.03-4.17-1.49-4.27-4.12-.06-1.42-.02-2.85-.02-4.28,0-4.63,0-9.27,0-13.9,0-2.82-1.84-5.29-4.58-6.1-2.76-.82-5.53.22-7.08,2.63-.77,1.2-1.08,2.52-1.08,3.93,0,5.92,0,11.84.01,17.75,0,2.49-1.54,4.09-4.01,4.1-.97,0-1.95.02-2.92,0-1.98-.05-3.63-1.56-3.85-3.54-.08-.68-.1-1.38-.1-2.06,0-5.61.02-11.22-.02-16.83-.02-2.78-1.45-4.73-3.97-5.81-3.95-1.69-8.64,1.4-8.67,5.73-.05,6.11-.01,12.22-.02,18.33,0,1.97-1,3.48-2.68,4.02-.33.11-.7.17-1.05.17-1.16.02-2.33.03-3.49-.01-1.96-.06-3.54-1.54-3.55-3.49-.04-6.65-.24-13.32.06-19.96.35-7.89,5.76-13.26,13.4-14.43,3.05-.47,6.06-.44,9,.58,2.41.83,4.45,2.23,6.18,4.08.11.12.22.24.35.37Z" class="cls-1"></path>
      <path d="m237.65,39.47c-3.92-.02-8.19-1.12-11.98-3.74-3.43-2.36-5.75-5.58-6.87-9.59-1.23-4.43-1.24-8.87.21-13.26,1.63-4.95,4.93-8.44,9.61-10.61,4.23-1.95,8.68-2.43,13.29-1.81,3.91.53,7.44,1.91,10.48,4.43,3.01,2.49,4.96,5.67,5.83,9.47,1.3,5.7.85,11.2-2.22,16.29-1.9,3.14-4.65,5.35-7.98,6.86-3.09,1.39-6.33,1.96-10.36,1.96Zm.96-9.8c.31-.02.74-.02,1.16-.07,3.22-.37,5.58-1.95,7-4.9.83-1.73,1.12-3.57,1.02-5.47-.16-2.99-1.15-5.62-3.63-7.49-2.16-1.63-4.65-1.97-7.24-1.66-2.27.27-4.23,1.23-5.68,3.06-1.83,2.31-2.34,4.98-2.11,7.84.14,1.75.62,3.41,1.61,4.88,1.85,2.76,4.54,3.83,7.87,3.81Z" class="cls-1"></path>
      <path d="m137.7,33.88c-1.21,1.04-2.31,2.24-3.63,3.07-5.12,3.25-10.44,3.45-15.71.44-3.22-1.83-4.69-4.87-4.91-8.52-.15-2.52.25-4.93,1.59-7.12,1.48-2.42,3.7-3.91,6.31-4.85,3.34-1.21,6.8-1.54,10.32-1.21,1.86.17,3.72.45,5.57.73.6.09.74-.1.73-.67-.05-3.25-1.97-5.43-5.37-6.1-2.39-.47-4.79-.36-7.17-.05-1.57.2-3.11.62-4.68.9-.63.11-1.28.22-1.9.17-2.45-.16-4.01-2.07-3.75-4.52.25-2.35,1.31-3.74,3.58-4.33,5.99-1.56,12.05-2.3,18.19-1.06,4.16.84,7.67,2.77,9.85,6.61,1.29,2.28,1.96,4.76,2.01,7.35.13,6.25.15,12.5.17,18.75,0,2.84-2.13,4.91-4.99,4.93-.81,0-1.62,0-2.42-.05-2.35-.14-3.73-1.61-3.77-3.96,0-.19-.02-.38-.03-.51Zm-9.12-2.4c1.46-.02,2.72-.49,3.91-1.48,1.77-1.46,2.99-3.35,4.11-5.31.44-.77.3-1.05-.59-1.18-1.38-.2-2.77-.42-4.16-.53-1.59-.12-3.18-.06-4.69.55-1.87.75-3,2.89-2.6,4.88.39,1.95,1.89,3.09,4.03,3.07Z" class="cls-1"></path>
      <path d="m47.15,25.66c.67.78,1.28,1.63,2.04,2.31,1.79,1.6,4.03,2.27,6.35,2.41,2.43.14,4.88,0,7.31-.1.84-.03,1.67-.37,2.51-.46.87-.09,1.76-.15,2.62-.04,3.18.41,3.97,3.76,2.72,6.09-.67,1.25-1.76,2.06-3.09,2.48-2.6.81-5.27,1.27-7.99,1.3-2.3.02-4.63.11-6.9-.18-6.23-.82-11.5-3.43-14.91-8.96-1.58-2.57-2.35-5.41-2.58-8.43-.27-3.5.12-6.88,1.41-10.13,1.56-3.92,4.23-6.91,7.87-9C48.93.39,53.71-.36,58.74.15c2.7.28,5.29.89,7.61,2.37,2.81,1.8,4.26,4.44,4.68,7.7.43,3.34-.12,6.44-2.27,9.13-1.74,2.18-4.03,3.6-6.59,4.59-4.57,1.78-9.29,2.25-14.13,1.48-.12-.02-.24-.03-.35-.03-.11,0-.23.02-.34.03-.06.08-.12.15-.18.23Zm3.79-8.67c1.43-.1,2.4-.14,3.37-.24,1.47-.15,2.9-.46,4.19-1.26,2.24-1.41,2.4-4.83.23-6.19-.97-.61-2.1-.81-3.22-.71-4.42.4-7.57,2.54-9.09,6.82-.24.67-.13.94.59,1.05,1.45.23,2.91.4,3.93.53Z" class="cls-1"></path>
      <path d="m92.72,38.78c-4.37,0-8.75.01-13.12,0-2.88-.01-4.97-2.6-4.1-5.25.34-1.04,1.1-1.98,1.81-2.86,4.35-5.46,8.74-10.89,13.12-16.33.85-1.05,1.72-2.09,2.56-3.15.19-.25.3-.56.44-.85-.31-.07-.62-.21-.92-.21-4.14-.02-8.27.02-12.41-.03-1.94-.02-3.46-.91-4.21-2.75-.73-1.81-.55-3.56.81-5.05.87-.95,2-1.4,3.31-1.4,8.51,0,17.02.05,25.53-.02,2.77-.02,5.05,3.03,3.62,5.88-.61,1.21-1.59,2.24-2.45,3.31-3.29,4.09-6.6,8.16-9.9,12.24-1.63,2.01-3.25,4.03-4.86,6.05-.18.23-.28.52-.41.78.28.08.57.22.85.22,3.9.02,7.8,0,11.7.02.93,0,1.87-.03,2.77.13,2.75.49,4.17,2.79,3.64,5.72-.35,1.92-1.53,3.1-3.51,3.41-.72.11-1.47.13-2.2.13-4.02.01-8.03,0-12.05,0h0Z" class="cls-1"></path>
      <path d="m15.22,39.46c-4.27.02-8.43-.6-12.4-2.22-1.65-.67-2.47-1.96-2.55-3.7-.08-1.72.53-3.12,2.1-3.98,1.02-.56,2.11-.55,3.18-.21,3.07.99,6.22,1.58,9.45,1.5,1.36-.04,2.73-.32,4.06-.62.86-.19,1.55-.75,1.68-1.73.14-1.04-.35-1.78-1.18-2.34-1.64-1.12-3.53-1.63-5.39-2.19-2.82-.85-5.66-1.64-8.27-3.05-2.66-1.44-4.86-3.36-5.55-6.43C-.94,8.72,1.28,3.82,7.06,1.6,10.52.28,14.13.05,17.79.31c3.04.21,5.96.86,8.8,1.95,2.16.83,3.15,3.07,2.38,5.32-.69,2.03-2.78,3.05-4.97,2.38-2.37-.73-4.78-1.28-7.26-1.33-1.04-.02-2.08.16-3.11.29-.32.04-.64.2-.93.35-1.91.97-2.19,2.95-.41,4.13,1.3.86,2.84,1.4,4.32,1.94,2.9,1.05,5.87,1.91,8.73,3.02,1.99.77,3.67,2.09,4.92,3.87.91,1.29,1.43,2.73,1.59,4.29.33,3.23-.23,6.22-2.56,8.65-1.69,1.76-3.85,2.74-6.18,3.38-2.59.71-5.23.93-7.9.92Z" class="cls-1"></path>
    </g>
  </g>
</svg>