<svg viewBox="0 0 217.37 217.37" xmlns="http://www.w3.org/2000/svg" data-name="Layer 2" id="Layer_2">
  <defs>
    <style>
      .cls-1 {
        fill: #f36c21;
      }
    </style>
  </defs>
  <g data-name="Layer 2" id="Layer_2-2">
    <g>
      <path d="m0,0v217.37h217.37V0H0Zm210.7,210.7c-.18.18-.42.17-.42.17H7.09s-.22.02-.41-.17-.18-.43-.18-.43V7.09s-.01-.21.16-.4.44-.19.44-.19h203.19s.23-.01.42.17.18.42.18.42v203.19s.01.23-.18.42Z" class="cls-1"></path>
      <path d="m164.98,17.26c.07-.08.24-.19.44-.19h5.15c.2,0,.35.1.42.18s.17.22.17.42v181.99c0,.2-.1.34-.17.42s-.23.18-.43.18h-5.15c-.2,0-.35-.1-.42-.17s-.18-.22-.18-.41V17.66c0-.2.09-.32.16-.4Z" class="cls-1"></path>
      <path d="m179.99,17.26c.07-.08.24-.19.44-.19h5.15c.2,0,.35.1.42.18s.17.22.17.42v181.99c0,.2-.1.34-.17.42s-.23.18-.43.18h-5.15c-.2,0-.35-.1-.42-.17s-.18-.22-.18-.41V17.66c0-.2.09-.32.16-.4Z" class="cls-1"></path>
      <path d="m192.87,98.32c.07-.08.24-.19.44-.19h5.15c.2,0,.35.1.42.18s.17.22.17.42c0,60.67,0-21.02,0,39.72,0,.2-.1.34-.17.42s-.23.18-.43.18h-5.15c-.2,0-.35-.1-.42-.17s-.18-.22-.18-.41c0-60.67,0,21,0-39.74,0-.2.09-.32.16-.4Z" class="cls-1"></path>
      <path d="m28.46,138.87c-.08.08-.22.17-.42.17h-5.28c-.2,0-.34-.09-.42-.18s-.18-.22-.18-.42v-33.63h-5.39c-.2,0-.34-.09-.43-.19-.06-.06-.16-.2-.16-.41v-5.18c0-.21.11-.35.17-.42.09-.09.23-.18.42-.18h5.32c0-1.57,0-2.94,0-4.32.02-9.16,3.2-12.4,12.08-12.28.77.01,1.55.05,2.31.15.71.09,1.41.22,2.19.36.19.03.32.15.37.23.07.1.15.26.12.45-.25,1.53-.48,3-.72,4.46-.03.18-.07.27-.19.39-.09.09-.23.15-.4.15-1.65-.02-3.2-.09-4.74.03-2.72.21-4.18,1.46-4.24,4.24-.04,2.06-.03,3.87-.03,6.02h6.9c.2,0,.34.09.44.19.09.09.17.23.17.43v5.11c0,.21-.09.33-.17.42s-.23.19-.43.19h-7.08c0,6.1,0,10.77,0,16.66s0,11.32,0,17.13c0,.2-.1.35-.18.42Z" class="cls-1"></path>
      <path d="m101.35,98.54c.08-.08.22-.17.42-.17h4.24c0-2.81,0-5.46,0-8.29,0-1.51.41-2.34,1.66-3.01,1.3-.69,2.68-1.51,4.17-2.4.27-.16.52-.04.58-.01.06.04.31.2.31.52v13.15h6.02c.2,0,.34.1.42.17s.18.21.18.42v5.17c0,.21-.09.32-.16.4s-.24.19-.44.19c-2,0-3.97,0-6.02,0,.02.84-.03,16.9,0,24.6.04,3.2,1.05,4.08,4.15,4.03.61-.01,1.23-.05,1.91-.09.17,0,.34.06.41.14.03.03.18.15.21.35.21,1.21.59,3.49.79,4.75.03.21-.07.36-.1.4-.05.07-.18.22-.36.25-3.68.74-7.26,1.1-10.65-1.04-1.93-1.22-3.04-4.01-3.1-6.26,0-5.13,0-22.43,0-27.13h-4.25c-.2,0-.32-.08-.42-.17s-.18-.22-.18-.44v-5.13c0-.21.1-.34.18-.42Z" class="cls-1"></path>
      <path d="m61.82,99.61c.05.11.06.28,0,.43-.62,1.71-1.19,3.33-1.81,4.96-.07.19-.17.28-.31.35-.1.05-.31.1-.51.01-1.01-.45-1.97-.89-2.96-1.07-3.61-.65-6.55,1.47-7.82,5.01-.97,2.71-1.19,6.04-1.22,8.88-.08,6.13-.14,17.53-.14,20.26,0,.17-.07.31-.21.45s-.39.15-.39.15h-5.27s-.23.01-.42-.17c-.1-.1-.17-.25-.17-.42v-39.33c0-.2.09-.34.18-.43s.21-.17.41-.17h4.66c.2,0,.32.08.41.16s.19.25.19.43v2.89c1.73-2.37,4.4-3.85,6.73-4.33,3.03-.63,5.7.11,8.41,1.66.14.08.2.2.23.28Z" class="cls-1"></path>
      <path d="m150.34,127.99c-2.5,5.58-7.87,7.86-13.55,5.96-5.12-1.71-8.28-7.63-8.08-13.53h28.96c.2,0,.33-.11.41-.17s.18-.23.18-.43c-.03-2.41-.27-5.37-.73-7.83-1.57-8.41-7.82-14-16.11-14.59-8.42-.61-15.75,3.97-18.25,11.99-1.07,3.42-1.53,7.19-1.5,10.8.13,12.06,7.02,19.22,17.27,19.83,8.92.52,16.13-3.34,18.74-12.32.06-.22-.03-.45-.11-.53-.05-.05-.16-.19-.38-.22-1.32-.17-2.63-.31-3.91-.58-1.51-.33-2.27.09-2.96,1.63Zm-10.26-25.11c6.26-.14,11.28,5.24,10.99,11.91h-22.31c0-6.36,4.95-11.77,11.32-11.91Z" class="cls-1"></path>
      <path d="m96.71,108.5c-.18-4.27-3.37-8.44-8.05-9.9-5.66-1.77-11.51-1.67-16.85.44-4.6,1.82-7.06,5.28-8.18,10.12-.05.21.02.41.09.49s.18.21.39.24c1.68.25,3.34.5,5.22.78.19.03.35-.02.46-.1s.19-.18.23-.35c1.14-4.58,5.18-6.66,9.91-6.72,7.68-.1,10.56,2.69,10.28,8.25-.06,1.14-.57,1.81-1.6,2-3.39.62-6.77,1.32-10.18,1.86-3.64.58-7.33.86-10.6,2.89-4.13,2.56-6.17,6.65-5.41,11.65.66,4.35,3.89,7.88,8.41,8.93,5.76,1.34,12.04.71,17.05-2.65,1.13-.76,1.59-1.17,2.33-1.88,0,1.6,0,2.66,0,3.86,0,.26.06.42.19.55.16.17.44.15.6.15h5.32c.25,0,.39-.14.45-.22.05-.06.13-.25.13-.5,0-1.75,0-18.82,0-26.47,0-1.74-.15-2.98-.17-3.42Zm-7.34,18.26c-.96,4.26-5.33,7.2-10.14,7.52-1.75.12-3.59.02-5.3-.39-2.83-.68-4.65-2.84-4.69-5.59-.04-2.73,1.74-5.27,4.6-6.02,2.75-.72,13.56-2.66,16.36-3.28-.26,2.76-.25,5.18-.83,7.75Z" class="cls-1"></path>
      <circle r="5.31" cy="87.06" cx="195.88" class="cls-1"></circle>
    </g>
  </g>
</svg>