<svg viewBox="0 0 306.46 93.47" xmlns="http://www.w3.org/2000/svg" data-name="Layer 2" id="Layer_2">
  <defs>
    <style>
      .cls-1 {
        fill: #f36c21;
      }
    </style>
  </defs>
  <g data-name="Layer 2" id="Layer_2-2">
    <g>
      <g id="path15473">
        <path d="m228.98,0c-7.87,0-11.8,3.97-11.8,11.91v3.67h-6.65v10.11h6.65v27.56h14.87v-27.56h8.52v-10.11h-8.52v-2.7c0-1.75.87-2.62,2.61-2.62h7.7V0h-13.37ZM0,.82v52.42h16.29v-17.22h20.84v-12.28h-20.84v-9.88h25.47V.82H0Zm166.6,0v52.42h15.54v-20.82c0-4.49,1.54-6.74,4.63-6.74,2.84,0,4.26,1.65,4.26,4.94v22.61h15.54v-25.08c0-4.44-1.11-7.86-3.32-10.26-2.22-2.4-5.22-3.59-9-3.59-5.68,0-9.39,3.3-11.13,9.88h-5.68c2.84-4.24,4.26-9.61,4.26-16.1V.82h-15.09Zm124.69,0v52.42h15.17V.82h-15.17Zm-149.34,13.48c-5.78,0-10.25,1.15-13.41,3.45-3.16,2.3-4.74,5.27-4.74,8.91,0,3.59,1.07,6.24,3.21,7.94,2.14,1.7,5.75,3.05,10.83,4.04l4.56.82c2.74.55,4.11,1.6,4.11,3.14,0,1.9-1.49,2.85-4.48,2.85-3.63,0-5.6-1.55-5.9-4.64l-14.04,1.87c.6,3.39,2.51,6.21,5.72,8.46,3.21,2.25,7.86,3.37,13.93,3.37,6.38,0,11.27-1.16,14.68-3.48s5.12-5.45,5.12-9.4c0-6.49-4.66-10.56-13.97-12.21l-5.45-.97c-3.14-.45-4.71-1.4-4.71-2.85,0-1.8,1.24-2.7,3.73-2.7,1.24-.03,2.46.35,3.45,1.1.99.75,1.7,1.81,2.01,3.02l13.67-2.7c-.7-2.95-2.55-5.36-5.57-7.23s-7.26-2.81-12.74-2.81h0Zm-43.32,0c-6.08,0-11.04,1.85-14.9,5.54s-5.79,8.49-5.79,14.38c0,6.39,1.83,11.37,5.49,14.94s8.75,5.35,15.28,5.35c10.31,0,17.18-3.77,20.62-11.31l-14.12-3.89c-1.5,3.44-3.66,5.17-6.5,5.17-3.79,0-5.7-2.4-5.75-7.19h25.85c.14-1.09.21-2.19.22-3.3,0-6.04-1.79-10.83-5.38-14.38-3.59-3.54-8.59-5.32-15.02-5.32Zm-25.93.23c-.15,0-.3,0-.45,0-3.19,0-5.67,1.07-7.43,3.22-1.77,2.15-2.98,5.47-3.62,9.96h-5.68c1.97-3.74,2.97-7.91,2.91-12.13h-13.6v37.66h15.54s0-13.78,0-13.78c0-3.74.8-6.49,2.39-8.24,1.59-1.75,4.16-2.62,7.7-2.62,1.81.01,3.61.19,5.38.52v-14.3c-1.04-.19-2.08-.29-3.13-.3Zm171.68,1.05v25.24c0,4.45,1.01,7.84,3.02,10.19,2.02,2.35,4.82,3.52,8.41,3.52,5.83,0,9.69-3.15,11.58-9.44h5.45c-1.74,3.05-2.67,5.77-2.76,8.16h13.97V15.58h-15.32v20.97c0,2-.41,3.59-1.23,4.79-.36.57-.87,1.03-1.46,1.35-.59.31-1.26.47-1.93.45-.58.03-1.15-.08-1.68-.3-.53-.23-1-.57-1.38-1.01-.75-.87-1.12-2.13-1.12-3.78V15.58h-15.54Zm-145.4,8.16c.63,0,1.25.14,1.83.38.66.28,1.26.7,1.75,1.23.97,1.07,1.48,2.56,1.53,4.46h-10.91c.3-4.04,2.14-6.07,5.53-6.07.09,0,.18,0,.27,0h0Z" class="cls-1"></path>
      </g>
      <g id="g21221">
        <g>
          <g id="g1069">
            <path d="m181.06,70.58c0-.81.47-1.21,1.41-1.21.27,0,.53.03.76.1.23.07.39.12.47.16v7.45c.06-.1.19-.27.38-.49s.45-.45.8-.68.77-.44,1.27-.6c.51-.17,1.11-.26,1.81-.26.86,0,1.65.14,2.38.44.73.29,1.36.71,1.9,1.27.54.56.96,1.24,1.27,2.05.31.81.46,1.74.46,2.76,0,1.08-.17,2.05-.5,2.93-.33.87-.84,1.62-1.5,2.24-.67.62-1.51,1.09-2.51,1.43-1.01.33-2.19.5-3.55.5-.67,0-1.29-.02-1.85-.05-.57-.03-1.06-.07-1.49-.12-.43-.05-.77-.08-1.03-.12-.26-.03-.42-.06-.49-.08v-17.73h-.01Zm10.15,11.2c0-1.4-.32-2.51-.97-3.31-.65-.81-1.59-1.21-2.83-1.21-.62,0-1.16.1-1.62.32s-.84.51-1.16.9c-.31.38-.54.84-.7,1.35-.16.51-.23,1.07-.23,1.67v4.8c.14.05.41.11.83.18.41.07.99.1,1.72.1.87,0,1.62-.12,2.25-.34.62-.23,1.14-.56,1.54-.99s.7-.94.88-1.53c.19-.6.29-1.24.29-1.94h0Z" class="cls-1" id="path1065"></path>
            <path d="m202.12,84.56c.29-.6.6-1.26.94-1.99.33-.73.66-1.46.96-2.18s.6-1.42.87-2.09.51-1.23.7-1.7c.14-.34.31-.62.53-.85.21-.22.56-.33,1.04-.33.4,0,.71.08.96.23.25.16.4.27.45.33-.12.4-.28.85-.49,1.38-.21.52-.43,1.07-.67,1.66s-.49,1.18-.77,1.8c-.27.62-.55,1.22-.83,1.8-.55,1.22-1.12,2.4-1.71,3.56s-1.22,2.31-1.89,3.46c-.36.62-.71,1.16-1.07,1.64s-.73.88-1.14,1.2c-.41.32-.86.56-1.35.73-.49.17-1.04.26-1.66.26-.43,0-.81-.03-1.16-.1-.34-.07-.64-.14-.88-.23-.25-.08-.45-.17-.59-.25s-.23-.12-.25-.14l.87-1.95c.08.06.31.17.66.31s.75.21,1.2.21c.34,0,.65-.05.92-.16s.54-.27.8-.49.51-.51.75-.87.49-.79.77-1.29l.67-1.29c-.22-.36-.5-.82-.84-1.39-.33-.57-.69-1.16-1.07-1.79-.38-.62-.75-1.26-1.13-1.92-.38-.65-.73-1.25-1.05-1.81-.32-.56-.6-1.04-.84-1.45s-.38-.68-.45-.83c-.12-.24-.22-.47-.31-.68s-.13-.44-.13-.68c0-.32.1-.62.29-.87.19-.26.55-.38,1.04-.38.36,0,.62.03.8.1.17.07.27.11.31.13.08.19.31.62.66,1.31.35.68.76,1.48,1.22,2.37.46.89.95,1.81,1.46,2.75.54.93,1,1.76,1.41,2.48h0Z" class="cls-1" id="path1067"></path>
          </g>
          <g id="g1077">
            <g id="g1075">
              <g id="g1073">
                <path d="m295.39,75.27v4.82h3.88v2.26c-.3.18-.65.3-1.03.39-.39.09-.91.13-1.55.13-.79,0-1.53-.13-2.18-.39-.66-.26-1.23-.63-1.7-1.1s-.85-1.05-1.12-1.71c-.27-.67-.4-1.4-.4-2.2v-.06c0-.78.12-1.49.37-2.13.25-.65.6-1.21,1.05-1.68.45-.47.99-.85,1.62-1.12.63-.27,1.3-.4,2.04-.4.95,0,1.83.18,2.65.52.82.34,1.61.83,2.36,1.46l4.24-5.11c-1.23-1.08-2.62-1.92-4.19-2.53-1.56-.6-3.33-.91-5.29-.91-1.79,0-3.44.3-4.96.89-1.52.6-2.84,1.42-3.96,2.48-1.12,1.06-1.99,2.31-2.62,3.75-.55,1.27-.86,2.64-.92,4.09l-4.55-10.88h-7.51l-6.46,15.45v-15.29h-7.89l-4.85,7.96-4.85-7.96h-7.89v5.06c-.37-.67-.81-1.29-1.32-1.87-.99-1.13-2.24-2.02-3.76-2.69s-3.31-1-5.38-1c-1.77,0-3.4.3-4.87.92-1.48.61-2.75,1.45-3.83,2.53-1.08,1.07-1.91,2.32-2.5,3.75s-.88,2.97-.88,4.61v.08c0,1.75.32,3.35.95,4.79.64,1.44,1.52,2.68,2.66,3.69,1.13,1.02,2.49,1.81,4.05,2.38,1.57.57,3.29.85,5.18.85,2.39,0,4.44-.42,6.13-1.25.83-.41,1.58-.89,2.29-1.43l-3.8-4.59c-.47.34-.94.61-1.4.81-.84.36-1.77.54-2.77.54-1.33,0-2.44-.3-3.34-.92-.75-.51-1.3-1.25-1.65-2.21h14.27v8.59h7.38v-11.22l5.23,8.05h.13l5.23-8.05v11.22h12.55l1.16-3.04h7.93l1.2,3.04h8.22l-1.07-2.55c1.1.94,2.37,1.68,3.82,2.2,1.54.56,3.2.84,4.97.84,2.07,0,3.95-.31,5.63-.94s3.14-1.44,4.37-2.45v-10.46h-11Zm-70.29-.03c.25-1.17.71-2.1,1.38-2.81.71-.74,1.62-1.1,2.75-1.1s2.1.37,2.83,1.1c.7.7,1.13,1.64,1.3,2.81h-8.27Zm48.12,4.98l2.07-5.5,2.07,5.5h-4.14Z" class="cls-1" id="path1071"></path>
              </g>
            </g>
          </g>
        </g>
      </g>
    </g>
  </g>
</svg>