<svg viewBox="0 0 604.37 56.86" xmlns="http://www.w3.org/2000/svg" data-name="Layer 2" id="Layer_2">
  <defs>
    <style>
      .cls-1 {
        fill: #f36c21;
      }
    </style>
  </defs>
  <g data-name="Layer 2" id="Layer_2-2">
    <g>
      <path d="m57.14,54.89h-14.21l-22.63-31.33-11.41,31.33H0L19.36,1.87h17.39l20.11,29.46L67.71,1.87h8.79l-19.36,53.02Z" class="cls-1"></path>
      <path d="m140.74,49.1c-10.57,4.77-23.66,7.76-36.85,7.76s-24.22-2.99-31.42-7.86l15.06-41.24C98.1,2.99,111.19,0,124.47,0s24.22,2.99,31.33,7.86l-15.06,41.24Zm-30.21-40.96l-14.87,40.68c2.99,1.03,6.45,1.59,10.38,1.59s7.95-.56,11.69-1.68l14.87-40.68c-2.99-1.03-6.45-1.59-10.38-1.59s-7.95.65-11.69,1.68Z" class="cls-1"></path>
      <path d="m233.69,19.64h-23.1l4.21-11.6c-2.99-1.03-6.45-1.59-10.38-1.59s-7.95.65-11.69,1.68l-6.08,16.55h45.17l-8.88,24.31c-10.57,4.86-23.66,7.76-36.85,7.76s-24.22-2.9-31.42-7.76l4.4-11.88h23.1l-4.3,11.6c2.99,1.03,6.45,1.59,10.38,1.59s7.95-.56,11.78-1.59l6.08-16.93h-45.17l8.79-24.03c10.57-4.77,23.66-7.76,36.94-7.76s24.22,2.99,31.33,7.86l-4.3,11.78Z" class="cls-1"></path>
      <path d="m301.95,9.82h-17.39l-16.37,44.98h-23l16.36-44.98h-17.3l2.62-7.29h57.7l-2.62,7.29Z" class="cls-1"></path>
      <path d="m330.48,54.89l-1.12-5.89h-28.62l-5.42,5.89h-11.13L334.31,1.03h11.13l10.75,53.87h-25.72Zm-5.52-32.08l-17.67,18.98h21.04l-3.37-18.98Z" class="cls-1"></path>
      <path d="m413.7,54.99h-48.25L384.71,1.96h23l-16.65,45.73h25.25l-2.62,7.29Z" class="cls-1"></path>
      <path d="m501.79,19.73h-23.1l4.21-11.69c-2.9-1.03-6.45-1.59-10.38-1.59s-7.95.65-11.78,1.68l-14.78,40.59c2.99,1.03,6.45,1.59,10.38,1.59s7.95-.56,11.78-1.59l5.24-14.31h-7.58l2.71-7.39h30.58l-8.04,21.98c-10.47,4.86-23.57,7.76-36.85,7.76s-24.22-2.9-31.42-7.76l15.06-41.24c10.57-4.77,23.66-7.76,36.94-7.76s24.13,2.99,31.33,7.86l-4.3,11.88Z" class="cls-1"></path>
      <path d="m525.26,54.89h-21.04l19.26-53.02h21.04l-19.26,53.02Z" class="cls-1"></path>
      <path d="m578.66,54.89l-1.12-5.89h-28.62l-5.42,5.89h-11.13L582.49,1.03h11.13l10.75,53.87h-25.72Zm-5.52-32.08l-17.67,18.98h21.04l-3.37-18.98Z" class="cls-1"></path>
    </g>
  </g>
</svg>